<?xml version="1.0" encoding="utf-8"?>
<!-- Generator: Adobe Illustrator 19.2.1, SVG Export Plug-In . SVG Version: 6.00 Build 0)  -->
<svg version="1.1" id="Capa_1" xmlns="http://www.w3.org/2000/svg" xmlns:xlink="http://www.w3.org/1999/xlink" x="0px" y="0px"
	 viewBox="0 0 171.3 171.3" style="enable-background:new 0 0 171.3 171.3;" xml:space="preserve">
<style type="text/css">
	.st0{fill:#50CD89;}
</style>
<g>
	<path class="st0" d="M24.7,38.3c0-2.3,0-4.4,0-6.4c0.1-6.1,3-10.7,8.1-13.9c2.1-1.3,4.4-2,6.9-2c31.4-0.1,62.8-0.2,94.2-0.2
		c6.4,0,12.8,0.1,19.1,0.2c7.2,0,11.9,3.8,14.7,10.1c0.6,1.4,1,3,1,4.5c0.2,13.1,0.4,26.3,0.4,39.4c0,10.2-0.4,20.3-0.3,30.5
		c0,6.3-6,13.7-12.7,14.6c-2.6,0.4-5.2,0.3-7.8,0.5c-0.5,0-1.1,0-1.8,0c0,1.3,0.1,2.5,0,3.7c-0.2,2.3-0.1,4.7-0.7,6.9
		c-1.7,6.2-5.9,10-12.1,11.5c-2.3,0.6-4.9,0.4-7.3,0.4c-23.4,0.1-46.8,0.1-70.2,0.1c-1.1,0-1.9,0.3-2.6,1.1c-9,9-18,18-27,27.1
		c-0.3,0.3-0.6,0.6-1.1,1.1c0-9.9,0-19.5,0-29.2c-1,0-1.8,0-2.6,0c-2.6-0.1-5.2-0.1-7.7-0.4c-6.8-1-12.7-7.8-12.7-14.6
		c-0.1-23.4-0.1-46.8,0-70.1c0-4.9,2.8-8.5,6.5-11.4c2.7-2.1,5.7-3.1,9.1-3.1C20.1,38.3,22.3,38.3,24.7,38.3z M35.7,141.8
		c0.1,0,0.2,0.1,0.3,0.1c0.3-0.3,0.6-0.5,0.8-0.8c4.2-4.2,8.5-8.5,12.7-12.7c0.6-0.6,1.1-0.8,1.9-0.8c19.5,0,39.1,0,58.6,0
		c6.9,0,13.9-0.1,20.8-0.3c2.7-0.1,4.6-2,4.8-4.7c0.1-1.5,0.2-2.9,0.2-4.4c0-15.2,0.1-30.5,0.1-45.7c0-6.1-0.1-12.2-0.3-18.3
		c-0.1-3.4-1.9-5.1-5.4-5.2c-2.6-0.1-5.3-0.2-7.9-0.2c-30.7,0-61.4,0-92.1,0c-4.1,0-8.2,0.1-12.3,0.2c-3.3,0.1-5.1,2-5.2,5.3
		c0,0.9-0.1,1.8-0.1,2.7c0,13.1-0.1,26.1-0.1,39.2c0,8.6,0.1,17.1,0.2,25.7c0,0.8,0.2,1.7,0.5,2.4c0.9,1.9,2.4,3,4.5,3
		c4.1,0.1,8.3,0,12.4,0.1c1.8,0,3.6,0,5.5,0C35.7,132.3,35.7,137.1,35.7,141.8z M146.4,105.1c2.6-0.1,5.1-0.1,7.5-0.4
		c2.6-0.3,4.1-2.2,4.4-4.8c0.1-0.8,0.1-1.5,0.1-2.3c0-19,0.1-38,0.1-57.1c0-3-0.1-6.1-0.2-9.1c-0.2-3.2-2.1-4.9-5.3-5
		c-4.6-0.1-9.2-0.2-13.8-0.2c-30.2,0-60.5,0-90.7,0c-3,0-6.1,0.1-9.1,0.4c-1.8,0.2-3.2,1.3-3.7,3.1c-0.9,2.8-0.5,5.6-0.6,8.5
		c0.5,0,0.8,0.1,1.1,0.1c6.7,0,13.4,0,20.1,0c25.2,0.1,50.3,0.1,75.5,0.3c1.4,0,2.8,0.4,4.1,0.8c5.2,1.8,10.6,7.7,10.6,15.4
		c0,16.2,0.1,32.4,0.1,48.6C146.4,103.9,146.4,104.4,146.4,105.1z"/>
	<path class="st0" d="M74.5,93.1c-15,0-30,0-45,0c-2.4,0-4.4-1.6-4.9-4c-0.6-2.9,1.7-6.1,4.7-6.1c11,0,21.9-0.1,32.9-0.1
		c19.2,0,38.5,0.1,57.7,0c2.2,0,3.4,1.1,4.3,2.7c1,1.6,1,3.4,0,5c-1,1.6-2.3,2.6-4.5,2.6C104.6,93.1,89.5,93.1,74.5,93.1z"/>
	<path class="st0" d="M63.5,105.4c11.4,0,22.9,0,34.3,0c2.6,0,4.4,1.8,4.8,4.4c0.3,2.2-1.8,5.3-4.2,5.3c-5.2,0-10.4,0.2-15.6,0.2
		c-17.8,0.1-35.5,0.1-53.3,0.1c-2.2,0-4.2-1.4-4.9-3.5c-0.7-2.2,0-4.6,1.9-6c0.9-0.7,1.9-1,3.1-1c11.3,0,22.6,0,34,0
		C63.5,105.2,63.5,105.3,63.5,105.4z"/>
	<path class="st0" d="M52.1,70.9c-6.7,0-13.3,0-20,0c-1.5,0-2.9-0.2-4.4-0.3c-2-0.2-3-1.6-3.4-3.2c-0.9-3.5,1-6.7,4.8-6.7
		c14.8,0,29.7,0,44.5,0.1c0.7,0,1.5,0.1,2.2,0.1c2.1,0.1,3.9,1.7,4.3,4c0.4,2.1-0.8,4.8-2.7,5.5c-0.8,0.3-1.8,0.4-2.7,0.4
		c-7.6,0-15.1,0-22.7,0C52.1,70.8,52.1,70.9,52.1,70.9z"/>
</g>
</svg>
